<svg width="46" height="46" viewBox="0 0 46 46" fill="none" xmlns="http://www.w3.org/2000/svg">
<circle cx="23" cy="23" r="23" fill="#ECF0F1"/>
<path d="M7 34V12H14.3327C16.347 12 18.1648 12.4406 19.7861 13.3219C21.4074 14.2031 22.6725 15.4432 23.5814 17.0421C24.5026 18.6283 24.9754 20.416 25 22.4052V23.4438C25 25.4455 24.5455 27.2584 23.6366 28.8824C22.74 30.4938 21.4811 31.7528 19.8598 32.6592C18.2508 33.5531 16.4268 34 14.3879 34H7ZM12.3429 16.4189V29.6189H14.3879C16.2057 29.6189 17.5261 29.1468 18.349 28.2026C19.1842 27.2458 19.6141 25.7413 19.6387 23.6893V22.5562C19.6387 20.4538 19.2272 18.9179 18.4043 17.9485C17.5937 16.9665 16.3163 16.4567 14.5722 16.4189H12.3429Z" fill="#0000FF"/>
<path d="M39.9808 25.4266H30.5769V34H25V12H41V16.4189H30.5769V21.0266H39.9808V25.4266Z" fill="#0000FF"/>
</svg>
